{"title":"The Blacklist Season 3 S03  Complete 720p ~{KiNg}","uid":14943837,"size":9373400631,"categoryP":"video","categoryS":"hd___tv_shows","magnet":"?xt=urn:btih:2589d6a6a2cd5591cbb6f39d28d0c244e5be2564&amp;dn=The+Blacklist+Season+3+S03++Complete+720p+%7E%7BKiNg%7D&amp;tr=udp%3A%2F%2Ftracker.leechers-paradise.org%3A6969&amp;tr=udp%3A%2F%2Fzer0day.ch%3A1337&amp;tr=udp%3A%2F%2Fopen.demonii.com%3A1337&amp;tr=udp%3A%2F%2Ftracker.coppersurfer.tk%3A6969&amp;tr=udp%3A%2F%2Fexodus.desync.com%3A6969","seeders":246,"leechers":133,"uploader":"Uplaoderking","files":23,"time":1466035558,"description":"General\r\nFormat : Matroska\r\nFormat version : Version 4 / Version 2\r\nFile size : 389 MiB\r\nDuration : 43mn 5s\r\nOverall bit rate : 1 262 Kbps\r\n\r\nVideo\r\nID : 1\r\nFormat : AVC\r\nFormat/Info : Advanced Video Codec\r\nFormat profile :   \r\nFormat settings, CABAC : Yes\r\nFormat settings, ReFrames : 4 frames\r\nCodec ID : V_MPEG4/ISO/AVC\r\nDuration : 43mn 5s\r\nBit rate : 1 036 Kbps\r\nWidth : 1 280 pixels\r\nHeight : 720 pixels\r\nDisplay aspect ratio : 16:9\r\nFrame rate mode : Constant\r\nFrame rate : 23.976 (24000/1001) fps\r\nColor space : YUV\r\n\r\nAudio\r\nID : 2\r\nFormat : AC-3\r\nFormat/Info : Audio Coding 3\r\nMode extension : CM (complete main)\r\nFormat settings, Endianness : Big\r\nCodec ID : A_AC3\r\nDuration : 43mn 5s\r\nBit rate mode : Constant\r\nBit rate : 224 Kbps\r\nChannel(s) : 6 channels\r\nChannel positions : Front: L C R, Side: L R, LFE\r\nSampling rate : 48.0 KHz\r\nFrame rate : 31.250 fps (1536 spf)\r\nCompression mode : Lossy\r\nStream size : 69.0 MiB (18%)\r\nLanguage : English\r\nDefault : No\r\nForced : No\r\n\r\nText\r\nID : 3\r\nFormat : UTF-8\r\nCodec ID : S_TEXT/UTF8\r\nCodec ID/Info : UTF-8 Plain Text\r\nDuration : 42mn 20s\r\nBit rate : 106 bps\r\nCount of elements : 728\r\nStream size : 33.0 KiB (0%)\r\nLanguage : English\r\nDefault : No\r\nForced : No","torrent":{"xt":"urn:btih:2589d6a6a2cd5591cbb6f39d28d0c244e5be2564","amp;dn":"The+Blacklist+Season+3+S03++Complete+720p+%7E%7BKiNg%7D","amp;tr":["udp%3A%2F%2Ftracker.leechers-paradise.org%3A6969","udp%3A%2F%2Fzer0day.ch%3A1337","udp%3A%2F%2Fopen.demonii.com%3A1337","udp%3A%2F%2Ftracker.coppersurfer.tk%3A6969","udp%3A%2F%2Fexodus.desync.com%3A6969"],"infoHash":"2589d6a6a2cd5591cbb6f39d28d0c244e5be2564","infoHashBuffer":{"type":"Buffer","data":[37,137,214,166,162,205,85,145,203,182,243,157,40,208,194,68,229,190,37,100]},"announce":[],"urlList":[]}}